<svg xmlns="http://www.w3.org/2000/svg" xmlns:xlink="http://www.w3.org/1999/xlink" width="500" zoomAndPan="magnify" viewBox="0 0 375 374.999991" height="500" preserveAspectRatio="xMidYMid meet" version="1.0"><defs><g/><clipPath id="5955a5a8a3"><path d="M 128.921875 89.5625 L 245.921875 89.5625 L 245.921875 206.5625 L 128.921875 206.5625 Z M 128.921875 89.5625 " clip-rule="nonzero"/></clipPath><clipPath id="c50f77d1f1"><path d="M 160.398438 89.5625 L 214.449219 89.5625 C 215.480469 89.5625 216.507812 89.613281 217.53125 89.714844 C 218.558594 89.816406 219.578125 89.964844 220.589844 90.167969 C 221.597656 90.367188 222.597656 90.617188 223.585938 90.917969 C 224.570312 91.21875 225.539062 91.5625 226.492188 91.957031 C 227.445312 92.351562 228.375 92.792969 229.285156 93.28125 C 230.195312 93.765625 231.078125 94.292969 231.933594 94.867188 C 232.792969 95.441406 233.617188 96.054688 234.414062 96.707031 C 235.210938 97.363281 235.976562 98.054688 236.703125 98.78125 C 237.433594 99.511719 238.125 100.273438 238.777344 101.070312 C 239.433594 101.867188 240.046875 102.695312 240.617188 103.550781 C 241.191406 104.410156 241.722656 105.292969 242.207031 106.199219 C 242.691406 107.109375 243.132812 108.039062 243.527344 108.992188 C 243.921875 109.945312 244.269531 110.914062 244.570312 111.902344 C 244.867188 112.886719 245.117188 113.886719 245.320312 114.898438 C 245.519531 115.910156 245.671875 116.925781 245.773438 117.953125 C 245.875 118.980469 245.921875 120.007812 245.921875 121.039062 L 245.921875 175.085938 C 245.921875 176.117188 245.875 177.144531 245.773438 178.171875 C 245.671875 179.199219 245.519531 180.214844 245.320312 181.226562 C 245.117188 182.238281 244.867188 183.238281 244.570312 184.222656 C 244.269531 185.210938 243.921875 186.179688 243.527344 187.132812 C 243.132812 188.085938 242.691406 189.015625 242.207031 189.925781 C 241.722656 190.832031 241.191406 191.714844 240.617188 192.574219 C 240.046875 193.429688 239.433594 194.257812 238.777344 195.054688 C 238.125 195.851562 237.433594 196.613281 236.703125 197.34375 C 235.976562 198.074219 235.210938 198.765625 234.414062 199.417969 C 233.617188 200.070312 232.792969 200.683594 231.933594 201.257812 C 231.078125 201.832031 230.195312 202.359375 229.285156 202.847656 C 228.375 203.332031 227.445312 203.773438 226.492188 204.167969 C 225.539062 204.5625 224.570312 204.90625 223.585938 205.207031 C 222.597656 205.507812 221.597656 205.757812 220.589844 205.957031 C 219.578125 206.160156 218.558594 206.308594 217.53125 206.410156 C 216.507812 206.511719 215.480469 206.5625 214.449219 206.5625 L 160.398438 206.5625 C 159.367188 206.5625 158.339844 206.511719 157.316406 206.410156 C 156.289062 206.308594 155.269531 206.160156 154.257812 205.957031 C 153.246094 205.757812 152.25 205.507812 151.261719 205.207031 C 150.277344 204.90625 149.308594 204.5625 148.355469 204.167969 C 147.402344 203.773438 146.472656 203.332031 145.5625 202.847656 C 144.652344 202.359375 143.769531 201.832031 142.914062 201.257812 C 142.054688 200.683594 141.226562 200.070312 140.429688 199.417969 C 139.632812 198.765625 138.871094 198.074219 138.144531 197.34375 C 137.414062 196.613281 136.722656 195.851562 136.070312 195.054688 C 135.414062 194.257812 134.800781 193.429688 134.226562 192.574219 C 133.65625 191.714844 133.125 190.832031 132.640625 189.925781 C 132.15625 189.015625 131.714844 188.085938 131.320312 187.132812 C 130.925781 186.179688 130.578125 185.210938 130.277344 184.222656 C 129.980469 183.238281 129.730469 182.238281 129.527344 181.226562 C 129.328125 180.214844 129.175781 179.199219 129.074219 178.171875 C 128.972656 177.144531 128.921875 176.117188 128.921875 175.085938 L 128.921875 121.039062 C 128.921875 120.007812 128.972656 118.980469 129.074219 117.953125 C 129.175781 116.925781 129.328125 115.910156 129.527344 114.898438 C 129.730469 113.886719 129.980469 112.886719 130.277344 111.902344 C 130.578125 110.914062 130.925781 109.945312 131.320312 108.992188 C 131.714844 108.039062 132.15625 107.109375 132.640625 106.199219 C 133.125 105.292969 133.65625 104.410156 134.226562 103.550781 C 134.800781 102.695312 135.414062 101.867188 136.070312 101.070312 C 136.722656 100.273438 137.414062 99.511719 138.144531 98.78125 C 138.871094 98.054688 139.632812 97.363281 140.429688 96.707031 C 141.226562 96.054688 142.054688 95.441406 142.914062 94.867188 C 143.769531 94.292969 144.652344 93.765625 145.5625 93.28125 C 146.472656 92.792969 147.402344 92.351562 148.355469 91.957031 C 149.308594 91.5625 150.277344 91.21875 151.261719 90.917969 C 152.25 90.617188 153.246094 90.367188 154.257812 90.167969 C 155.269531 89.964844 156.289062 89.816406 157.316406 89.714844 C 158.339844 89.613281 159.367188 89.5625 160.398438 89.5625 Z M 160.398438 89.5625 " clip-rule="nonzero"/></clipPath><linearGradient x1="21.3519" gradientTransform="matrix(0, -0.495763, 0.495763, 0, 128.923722, 206.562715)" y1="-15.462267" x2="214.648929" gradientUnits="userSpaceOnUse" y2="251.46171" id="40501c8570"><stop stop-opacity="1" stop-color="rgb(49.617004%, 66.291809%, 95.73822%)" offset="0"/><stop stop-opacity="1" stop-color="rgb(49.578857%, 66.012573%, 95.687866%)" offset="0.00390625"/><stop stop-opacity="1" stop-color="rgb(49.542236%, 65.734863%, 95.639038%)" offset="0.0078125"/><stop stop-opacity="1" stop-color="rgb(49.504089%, 65.455627%, 95.59021%)" offset="0.0117187"/><stop stop-opacity="1" stop-color="rgb(49.465942%, 65.176392%, 95.541382%)" offset="0.015625"/><stop stop-opacity="1" stop-color="rgb(49.427795%, 64.897156%, 95.491028%)" offset="0.0195312"/><stop stop-opacity="1" stop-color="rgb(49.391174%, 64.619446%, 95.4422%)" offset="0.0234375"/><stop stop-opacity="1" stop-color="rgb(49.353027%, 64.34021%, 95.391846%)" offset="0.0273437"/><stop stop-opacity="1" stop-color="rgb(49.31488%, 64.0625%, 95.343018%)" offset="0.03125"/><stop stop-opacity="1" stop-color="rgb(49.276733%, 63.783264%, 95.294189%)" offset="0.0351562"/><stop stop-opacity="1" stop-color="rgb(49.240112%, 63.505554%, 95.245361%)" offset="0.0390625"/><stop stop-opacity="1" stop-color="rgb(49.201965%, 63.226318%, 95.195007%)" offset="0.0429687"/><stop stop-opacity="1" stop-color="rgb(49.165344%, 62.947083%, 95.146179%)" offset="0.046875"/><stop stop-opacity="1" stop-color="rgb(49.127197%, 62.667847%, 95.097351%)" offset="0.0507812"/><stop stop-opacity="1" stop-color="rgb(49.08905%, 62.390137%, 95.048523%)" offset="0.0546875"/><stop stop-opacity="1" stop-color="rgb(49.050903%, 62.110901%, 94.998169%)" offset="0.0585938"/><stop stop-opacity="1" stop-color="rgb(49.014282%, 61.833191%, 94.949341%)" offset="0.0625"/><stop stop-opacity="1" stop-color="rgb(48.976135%, 61.553955%, 94.900513%)" offset="0.0664062"/><stop stop-opacity="1" stop-color="rgb(48.939514%, 61.274719%, 94.851685%)" offset="0.0703125"/><stop stop-opacity="1" stop-color="rgb(48.901367%, 60.995483%, 94.801331%)" offset="0.0742188"/><stop stop-opacity="1" stop-color="rgb(48.86322%, 60.717773%, 94.752502%)" offset="0.078125"/><stop stop-opacity="1" stop-color="rgb(48.825073%, 60.438538%, 94.702148%)" offset="0.0820312"/><stop stop-opacity="1" stop-color="rgb(48.788452%, 60.160828%, 94.65332%)" offset="0.0859375"/><stop stop-opacity="1" stop-color="rgb(48.750305%, 59.881592%, 94.604492%)" offset="0.0898438"/><stop stop-opacity="1" stop-color="rgb(48.712158%, 59.603882%, 94.555664%)" offset="0.09375"/><stop stop-opacity="1" stop-color="rgb(48.674011%, 59.324646%, 94.50531%)" offset="0.0976562"/><stop stop-opacity="1" stop-color="rgb(48.63739%, 59.04541%, 94.456482%)" offset="0.101563"/><stop stop-opacity="1" stop-color="rgb(48.599243%, 58.766174%, 94.407654%)" offset="0.105469"/><stop stop-opacity="1" stop-color="rgb(48.562622%, 58.488464%, 94.358826%)" offset="0.109375"/><stop stop-opacity="1" stop-color="rgb(48.524475%, 58.209229%, 94.308472%)" offset="0.113281"/><stop stop-opacity="1" stop-color="rgb(48.486328%, 57.931519%, 94.259644%)" offset="0.117188"/><stop stop-opacity="1" stop-color="rgb(48.448181%, 57.652283%, 94.210815%)" offset="0.121094"/><stop stop-opacity="1" stop-color="rgb(48.41156%, 57.374573%, 94.161987%)" offset="0.125"/><stop stop-opacity="1" stop-color="rgb(48.373413%, 57.095337%, 94.111633%)" offset="0.128906"/><stop stop-opacity="1" stop-color="rgb(48.336792%, 56.816101%, 94.062805%)" offset="0.132813"/><stop stop-opacity="1" stop-color="rgb(48.298645%, 56.536865%, 94.012451%)" offset="0.136719"/><stop stop-opacity="1" stop-color="rgb(48.260498%, 56.259155%, 93.963623%)" offset="0.140625"/><stop stop-opacity="1" stop-color="rgb(48.222351%, 55.979919%, 93.914795%)" offset="0.144531"/><stop stop-opacity="1" stop-color="rgb(48.18573%, 55.702209%, 93.865967%)" offset="0.148438"/><stop stop-opacity="1" stop-color="rgb(48.147583%, 55.422974%, 93.815613%)" offset="0.152344"/><stop stop-opacity="1" stop-color="rgb(48.109436%, 55.145264%, 93.766785%)" offset="0.15625"/><stop stop-opacity="1" stop-color="rgb(48.071289%, 54.866028%, 93.717957%)" offset="0.160156"/><stop stop-opacity="1" stop-color="rgb(48.034668%, 54.586792%, 93.669128%)" offset="0.164063"/><stop stop-opacity="1" stop-color="rgb(47.996521%, 54.307556%, 93.618774%)" offset="0.167969"/><stop stop-opacity="1" stop-color="rgb(47.9599%, 54.029846%, 93.569946%)" offset="0.171875"/><stop stop-opacity="1" stop-color="rgb(47.921753%, 53.75061%, 93.521118%)" offset="0.175781"/><stop stop-opacity="1" stop-color="rgb(47.883606%, 53.4729%, 93.47229%)" offset="0.179688"/><stop stop-opacity="1" stop-color="rgb(47.845459%, 53.193665%, 93.421936%)" offset="0.183594"/><stop stop-opacity="1" stop-color="rgb(47.808838%, 52.915955%, 93.373108%)" offset="0.1875"/><stop stop-opacity="1" stop-color="rgb(47.770691%, 52.636719%, 93.322754%)" offset="0.191406"/><stop stop-opacity="1" stop-color="rgb(47.73407%, 52.357483%, 93.273926%)" offset="0.195313"/><stop stop-opacity="1" stop-color="rgb(47.695923%, 52.078247%, 93.225098%)" offset="0.199219"/><stop stop-opacity="1" stop-color="rgb(47.657776%, 51.800537%, 93.17627%)" offset="0.203125"/><stop stop-opacity="1" stop-color="rgb(47.619629%, 51.521301%, 93.125916%)" offset="0.207031"/><stop stop-opacity="1" stop-color="rgb(47.583008%, 51.243591%, 93.077087%)" offset="0.210938"/><stop stop-opacity="1" stop-color="rgb(47.544861%, 50.964355%, 93.028259%)" offset="0.214844"/><stop stop-opacity="1" stop-color="rgb(47.506714%, 50.686646%, 92.979431%)" offset="0.21875"/><stop stop-opacity="1" stop-color="rgb(47.468567%, 50.40741%, 92.929077%)" offset="0.222656"/><stop stop-opacity="1" stop-color="rgb(47.431946%, 50.128174%, 92.880249%)" offset="0.226563"/><stop stop-opacity="1" stop-color="rgb(47.393799%, 49.848938%, 92.831421%)" offset="0.230469"/><stop stop-opacity="1" stop-color="rgb(47.357178%, 49.571228%, 92.782593%)" offset="0.234375"/><stop stop-opacity="1" stop-color="rgb(47.319031%, 49.291992%, 92.732239%)" offset="0.238281"/><stop stop-opacity="1" stop-color="rgb(47.280884%, 49.014282%, 92.683411%)" offset="0.242188"/><stop stop-opacity="1" stop-color="rgb(47.242737%, 48.735046%, 92.633057%)" offset="0.246094"/><stop stop-opacity="1" stop-color="rgb(47.206116%, 48.457336%, 92.584229%)" offset="0.25"/><stop stop-opacity="1" stop-color="rgb(47.167969%, 48.178101%, 92.5354%)" offset="0.253906"/><stop stop-opacity="1" stop-color="rgb(47.131348%, 47.898865%, 92.486572%)" offset="0.257813"/><stop stop-opacity="1" stop-color="rgb(47.093201%, 47.619629%, 92.436218%)" offset="0.261719"/><stop stop-opacity="1" stop-color="rgb(47.055054%, 47.341919%, 92.38739%)" offset="0.265625"/><stop stop-opacity="1" stop-color="rgb(47.016907%, 47.062683%, 92.338562%)" offset="0.269531"/><stop stop-opacity="1" stop-color="rgb(46.980286%, 46.784973%, 92.289734%)" offset="0.273438"/><stop stop-opacity="1" stop-color="rgb(46.942139%, 46.505737%, 92.23938%)" offset="0.277344"/><stop stop-opacity="1" stop-color="rgb(46.903992%, 46.226501%, 92.190552%)" offset="0.28125"/><stop stop-opacity="1" stop-color="rgb(46.865845%, 45.947266%, 92.141724%)" offset="0.285156"/><stop stop-opacity="1" stop-color="rgb(46.829224%, 45.669556%, 92.092896%)" offset="0.289063"/><stop stop-opacity="1" stop-color="rgb(46.791077%, 45.39032%, 92.042542%)" offset="0.292969"/><stop stop-opacity="1" stop-color="rgb(46.754456%, 45.11261%, 91.993713%)" offset="0.296875"/><stop stop-opacity="1" stop-color="rgb(46.716309%, 44.833374%, 91.943359%)" offset="0.300781"/><stop stop-opacity="1" stop-color="rgb(46.678162%, 44.555664%, 91.894531%)" offset="0.304688"/><stop stop-opacity="1" stop-color="rgb(46.640015%, 44.276428%, 91.845703%)" offset="0.308594"/><stop stop-opacity="1" stop-color="rgb(46.603394%, 43.997192%, 91.796875%)" offset="0.3125"/><stop stop-opacity="1" stop-color="rgb(46.565247%, 43.717957%, 91.746521%)" offset="0.316406"/><stop stop-opacity="1" stop-color="rgb(46.528625%, 43.440247%, 91.697693%)" offset="0.320313"/><stop stop-opacity="1" stop-color="rgb(46.490479%, 43.161011%, 91.648865%)" offset="0.324219"/><stop stop-opacity="1" stop-color="rgb(46.452332%, 42.883301%, 91.600037%)" offset="0.328125"/><stop stop-opacity="1" stop-color="rgb(46.414185%, 42.604065%, 91.549683%)" offset="0.332031"/><stop stop-opacity="1" stop-color="rgb(46.377563%, 42.326355%, 91.500854%)" offset="0.335938"/><stop stop-opacity="1" stop-color="rgb(46.339417%, 42.047119%, 91.452026%)" offset="0.339844"/><stop stop-opacity="1" stop-color="rgb(46.30127%, 41.767883%, 91.403198%)" offset="0.34375"/><stop stop-opacity="1" stop-color="rgb(46.263123%, 41.488647%, 91.352844%)" offset="0.347656"/><stop stop-opacity="1" stop-color="rgb(46.226501%, 41.210938%, 91.304016%)" offset="0.351563"/><stop stop-opacity="1" stop-color="rgb(46.188354%, 40.931702%, 91.253662%)" offset="0.355469"/><stop stop-opacity="1" stop-color="rgb(46.151733%, 40.653992%, 91.204834%)" offset="0.359375"/><stop stop-opacity="1" stop-color="rgb(46.113586%, 40.374756%, 91.156006%)" offset="0.363281"/><stop stop-opacity="1" stop-color="rgb(46.075439%, 40.097046%, 91.107178%)" offset="0.367188"/><stop stop-opacity="1" stop-color="rgb(46.037292%, 39.81781%, 91.056824%)" offset="0.371094"/><stop stop-opacity="1" stop-color="rgb(46.000671%, 39.538574%, 91.007996%)" offset="0.375"/><stop stop-opacity="1" stop-color="rgb(45.962524%, 39.259338%, 90.959167%)" offset="0.378906"/><stop stop-opacity="1" stop-color="rgb(45.924377%, 38.981628%, 90.910339%)" offset="0.382813"/><stop stop-opacity="1" stop-color="rgb(45.88623%, 38.702393%, 90.859985%)" offset="0.386719"/><stop stop-opacity="1" stop-color="rgb(45.849609%, 38.424683%, 90.811157%)" offset="0.390625"/><stop stop-opacity="1" stop-color="rgb(45.811462%, 38.145447%, 90.762329%)" offset="0.394531"/><stop stop-opacity="1" stop-color="rgb(45.774841%, 37.867737%, 90.713501%)" offset="0.398438"/><stop stop-opacity="1" stop-color="rgb(45.736694%, 37.588501%, 90.663147%)" offset="0.402344"/><stop stop-opacity="1" stop-color="rgb(45.698547%, 37.309265%, 90.614319%)" offset="0.40625"/><stop stop-opacity="1" stop-color="rgb(45.6604%, 37.030029%, 90.565491%)" offset="0.410156"/><stop stop-opacity="1" stop-color="rgb(45.623779%, 36.752319%, 90.516663%)" offset="0.414063"/><stop stop-opacity="1" stop-color="rgb(45.585632%, 36.473083%, 90.466309%)" offset="0.417969"/><stop stop-opacity="1" stop-color="rgb(45.549011%, 36.195374%, 90.41748%)" offset="0.421875"/><stop stop-opacity="1" stop-color="rgb(45.510864%, 35.916138%, 90.367126%)" offset="0.425781"/><stop stop-opacity="1" stop-color="rgb(45.472717%, 35.638428%, 90.318298%)" offset="0.429688"/><stop stop-opacity="1" stop-color="rgb(45.43457%, 35.359192%, 90.26947%)" offset="0.433594"/><stop stop-opacity="1" stop-color="rgb(45.397949%, 35.079956%, 90.220642%)" offset="0.4375"/><stop stop-opacity="1" stop-color="rgb(45.359802%, 34.80072%, 90.170288%)" offset="0.441406"/><stop stop-opacity="1" stop-color="rgb(45.321655%, 34.52301%, 90.12146%)" offset="0.445313"/><stop stop-opacity="1" stop-color="rgb(45.283508%, 34.243774%, 90.072632%)" offset="0.449219"/><stop stop-opacity="1" stop-color="rgb(45.246887%, 33.966064%, 90.023804%)" offset="0.453125"/><stop stop-opacity="1" stop-color="rgb(45.20874%, 33.686829%, 89.97345%)" offset="0.457031"/><stop stop-opacity="1" stop-color="rgb(45.172119%, 33.409119%, 89.924622%)" offset="0.460938"/><stop stop-opacity="1" stop-color="rgb(45.133972%, 33.129883%, 89.875793%)" offset="0.464844"/><stop stop-opacity="1" stop-color="rgb(45.095825%, 32.850647%, 89.826965%)" offset="0.46875"/><stop stop-opacity="1" stop-color="rgb(45.057678%, 32.571411%, 89.776611%)" offset="0.472656"/><stop stop-opacity="1" stop-color="rgb(45.021057%, 32.293701%, 89.727783%)" offset="0.476563"/><stop stop-opacity="1" stop-color="rgb(44.98291%, 32.014465%, 89.677429%)" offset="0.480469"/><stop stop-opacity="1" stop-color="rgb(44.946289%, 31.736755%, 89.628601%)" offset="0.484375"/><stop stop-opacity="1" stop-color="rgb(44.908142%, 31.45752%, 89.579773%)" offset="0.488281"/><stop stop-opacity="1" stop-color="rgb(44.869995%, 31.178284%, 89.530945%)" offset="0.492188"/><stop stop-opacity="1" stop-color="rgb(44.831848%, 30.899048%, 89.480591%)" offset="0.496094"/><stop stop-opacity="1" stop-color="rgb(44.795227%, 30.621338%, 89.431763%)" offset="0.5"/><stop stop-opacity="1" stop-color="rgb(44.75708%, 30.342102%, 89.382935%)" offset="0.503906"/><stop stop-opacity="1" stop-color="rgb(44.718933%, 30.064392%, 89.334106%)" offset="0.507813"/><stop stop-opacity="1" stop-color="rgb(44.680786%, 29.785156%, 89.283752%)" offset="0.511719"/><stop stop-opacity="1" stop-color="rgb(44.644165%, 29.507446%, 89.234924%)" offset="0.515625"/><stop stop-opacity="1" stop-color="rgb(44.606018%, 29.22821%, 89.186096%)" offset="0.519531"/><stop stop-opacity="1" stop-color="rgb(44.569397%, 28.948975%, 89.137268%)" offset="0.523438"/><stop stop-opacity="1" stop-color="rgb(44.53125%, 28.669739%, 89.086914%)" offset="0.527344"/><stop stop-opacity="1" stop-color="rgb(44.493103%, 28.392029%, 89.038086%)" offset="0.53125"/><stop stop-opacity="1" stop-color="rgb(44.454956%, 28.112793%, 88.987732%)" offset="0.535156"/><stop stop-opacity="1" stop-color="rgb(44.418335%, 27.835083%, 88.938904%)" offset="0.539062"/><stop stop-opacity="1" stop-color="rgb(44.380188%, 27.555847%, 88.890076%)" offset="0.542969"/><stop stop-opacity="1" stop-color="rgb(44.343567%, 27.278137%, 88.841248%)" offset="0.546875"/><stop stop-opacity="1" stop-color="rgb(44.30542%, 26.998901%, 88.790894%)" offset="0.550781"/><stop stop-opacity="1" stop-color="rgb(44.267273%, 26.719666%, 88.742065%)" offset="0.554688"/><stop stop-opacity="1" stop-color="rgb(44.229126%, 26.44043%, 88.693237%)" offset="0.558594"/><stop stop-opacity="1" stop-color="rgb(44.192505%, 26.16272%, 88.644409%)" offset="0.5625"/><stop stop-opacity="1" stop-color="rgb(44.154358%, 25.883484%, 88.594055%)" offset="0.566406"/><stop stop-opacity="1" stop-color="rgb(44.116211%, 25.605774%, 88.545227%)" offset="0.570312"/><stop stop-opacity="1" stop-color="rgb(44.078064%, 25.326538%, 88.496399%)" offset="0.574219"/><stop stop-opacity="1" stop-color="rgb(44.041443%, 25.048828%, 88.447571%)" offset="0.578125"/><stop stop-opacity="1" stop-color="rgb(44.003296%, 24.769592%, 88.397217%)" offset="0.582031"/><stop stop-opacity="1" stop-color="rgb(43.966675%, 24.490356%, 88.348389%)" offset="0.585938"/><stop stop-opacity="1" stop-color="rgb(43.928528%, 24.211121%, 88.298035%)" offset="0.589844"/><stop stop-opacity="1" stop-color="rgb(43.890381%, 23.933411%, 88.249207%)" offset="0.59375"/><stop stop-opacity="1" stop-color="rgb(43.852234%, 23.654175%, 88.200378%)" offset="0.597656"/><stop stop-opacity="1" stop-color="rgb(43.815613%, 23.376465%, 88.15155%)" offset="0.601562"/><stop stop-opacity="1" stop-color="rgb(43.777466%, 23.097229%, 88.101196%)" offset="0.605469"/><stop stop-opacity="1" stop-color="rgb(43.740845%, 22.819519%, 88.052368%)" offset="0.609375"/><stop stop-opacity="1" stop-color="rgb(43.702698%, 22.540283%, 88.00354%)" offset="0.613281"/><stop stop-opacity="1" stop-color="rgb(43.664551%, 22.261047%, 87.954712%)" offset="0.617188"/><stop stop-opacity="1" stop-color="rgb(43.626404%, 21.981812%, 87.904358%)" offset="0.621094"/><stop stop-opacity="1" stop-color="rgb(43.589783%, 21.704102%, 87.85553%)" offset="0.625"/><stop stop-opacity="1" stop-color="rgb(43.551636%, 21.424866%, 87.806702%)" offset="0.628906"/><stop stop-opacity="1" stop-color="rgb(43.513489%, 21.147156%, 87.757874%)" offset="0.632812"/><stop stop-opacity="1" stop-color="rgb(43.475342%, 20.86792%, 87.70752%)" offset="0.636719"/><stop stop-opacity="1" stop-color="rgb(43.438721%, 20.59021%, 87.658691%)" offset="0.640625"/><stop stop-opacity="1" stop-color="rgb(43.400574%, 20.310974%, 87.608337%)" offset="0.644531"/><stop stop-opacity="1" stop-color="rgb(43.363953%, 20.031738%, 87.559509%)" offset="0.648438"/><stop stop-opacity="1" stop-color="rgb(43.325806%, 19.752502%, 87.510681%)" offset="0.652344"/><stop stop-opacity="1" stop-color="rgb(43.287659%, 19.474792%, 87.461853%)" offset="0.65625"/><stop stop-opacity="1" stop-color="rgb(43.249512%, 19.195557%, 87.411499%)" offset="0.660156"/><stop stop-opacity="1" stop-color="rgb(43.212891%, 18.917847%, 87.362671%)" offset="0.664062"/><stop stop-opacity="1" stop-color="rgb(43.174744%, 18.638611%, 87.313843%)" offset="0.667969"/><stop stop-opacity="1" stop-color="rgb(43.138123%, 18.360901%, 87.265015%)" offset="0.671875"/><stop stop-opacity="1" stop-color="rgb(43.099976%, 18.081665%, 87.214661%)" offset="0.675781"/><stop stop-opacity="1" stop-color="rgb(43.061829%, 17.802429%, 87.165833%)" offset="0.679688"/><stop stop-opacity="1" stop-color="rgb(43.023682%, 17.523193%, 87.117004%)" offset="0.683594"/><stop stop-opacity="1" stop-color="rgb(42.987061%, 17.245483%, 87.068176%)" offset="0.6875"/><stop stop-opacity="1" stop-color="rgb(42.948914%, 16.966248%, 87.017822%)" offset="0.691406"/><stop stop-opacity="1" stop-color="rgb(42.910767%, 16.688538%, 86.968994%)" offset="0.695312"/><stop stop-opacity="1" stop-color="rgb(42.87262%, 16.409302%, 86.91864%)" offset="0.699219"/><stop stop-opacity="1" stop-color="rgb(42.835999%, 16.131592%, 86.869812%)" offset="0.703125"/><stop stop-opacity="1" stop-color="rgb(42.797852%, 15.852356%, 86.820984%)" offset="0.707031"/><stop stop-opacity="1" stop-color="rgb(42.76123%, 15.57312%, 86.772156%)" offset="0.710938"/><stop stop-opacity="1" stop-color="rgb(42.723083%, 15.293884%, 86.721802%)" offset="0.714844"/><stop stop-opacity="1" stop-color="rgb(42.684937%, 15.016174%, 86.672974%)" offset="0.71875"/><stop stop-opacity="1" stop-color="rgb(42.64679%, 14.736938%, 86.624146%)" offset="0.722656"/><stop stop-opacity="1" stop-color="rgb(42.610168%, 14.459229%, 86.575317%)" offset="0.726562"/><stop stop-opacity="1" stop-color="rgb(42.572021%, 14.179993%, 86.524963%)" offset="0.730469"/><stop stop-opacity="1" stop-color="rgb(42.5354%, 13.900757%, 86.476135%)" offset="0.734375"/><stop stop-opacity="1" stop-color="rgb(42.497253%, 13.621521%, 86.427307%)" offset="0.738281"/><stop stop-opacity="1" stop-color="rgb(42.459106%, 13.343811%, 86.378479%)" offset="0.742188"/><stop stop-opacity="1" stop-color="rgb(42.428589%, 13.121033%, 86.338806%)" offset="0.746094"/><stop stop-opacity="1" stop-color="rgb(42.399597%, 12.89978%, 86.299133%)" offset="0.75"/><stop stop-opacity="1" stop-color="rgb(42.399597%, 12.89978%, 86.299133%)" offset="1"/></linearGradient><clipPath id="29ffd5ce2c"><path d="M 149.226562 113.394531 L 169 113.394531 L 169 183.144531 L 149.226562 183.144531 Z M 149.226562 113.394531 " clip-rule="nonzero"/></clipPath><clipPath id="c3cd4a4fba"><path d="M 168 113.394531 L 188 113.394531 L 188 183.144531 L 168 183.144531 Z M 168 113.394531 " clip-rule="nonzero"/></clipPath><clipPath id="e8de06ae44"><path d="M 187 113.394531 L 207 113.394531 L 207 183.144531 L 187 183.144531 Z M 187 113.394531 " clip-rule="nonzero"/></clipPath><clipPath id="418c095920"><path d="M 206 113.394531 L 225.726562 113.394531 L 225.726562 183.144531 L 206 183.144531 Z M 206 113.394531 " clip-rule="nonzero"/></clipPath></defs><rect x="-37.5" width="450" fill="#ffffff" y="-37.499999" height="449.999989" fill-opacity="1"/><rect x="-37.5" width="450" fill="#f6f6f6" y="-37.499999" height="449.999989" fill-opacity="1"/><g fill="#352359" fill-opacity="1"><g transform="translate(112.949952, 266.152483)"><g><path d="M 35.71875 -27.3125 L 35.546875 -27.3125 L 32.5 -21.234375 L 24.390625 -6.5 L 16.453125 -21.171875 L 13.296875 -27.734375 L 13.125 -27.734375 L 13.125 0 L 4.59375 0 L 4.59375 -41.625 L 14.1875 -41.625 L 24.390625 -22.125 L 24.515625 -22.125 L 34.59375 -41.625 L 44.25 -41.625 L 44.25 0 L 35.71875 0 Z M 35.71875 -27.3125 "/></g></g></g><g fill="#352359" fill-opacity="1"><g transform="translate(161.789354, 266.152483)"><g><path d="M 27.25 0 C 25.664062 0 24.34375 -0.492188 23.28125 -1.484375 C 22.226562 -2.484375 21.566406 -3.816406 21.296875 -5.484375 L 20.9375 -5.484375 C 20.457031 -3.453125 19.398438 -1.910156 17.765625 -0.859375 C 16.140625 0.191406 14.132812 0.71875 11.75 0.71875 C 8.601562 0.71875 6.195312 -0.113281 4.53125 -1.78125 C 2.863281 -3.457031 2.03125 -5.664062 2.03125 -8.40625 C 2.03125 -11.707031 3.234375 -14.160156 5.640625 -15.765625 C 8.046875 -17.378906 11.316406 -18.1875 15.453125 -18.1875 L 20.390625 -18.1875 L 20.390625 -20.15625 C 20.390625 -21.664062 19.992188 -22.867188 19.203125 -23.765625 C 18.410156 -24.660156 17.078125 -25.109375 15.203125 -25.109375 C 13.453125 -25.109375 12.0625 -24.726562 11.03125 -23.96875 C 10 -23.21875 9.144531 -22.363281 8.46875 -21.40625 L 3.21875 -26.0625 C 4.488281 -27.925781 6.085938 -29.382812 8.015625 -30.4375 C 9.953125 -31.5 12.566406 -32.03125 15.859375 -32.03125 C 20.316406 -32.03125 23.65625 -31.054688 25.875 -29.109375 C 28.101562 -27.160156 29.21875 -24.316406 29.21875 -20.578125 L 29.21875 -6.859375 L 32.140625 -6.859375 L 32.140625 0 Z M 15.03125 -5.421875 C 16.5 -5.421875 17.757812 -5.738281 18.8125 -6.375 C 19.863281 -7.007812 20.390625 -8.046875 20.390625 -9.484375 L 20.390625 -13.1875 L 16.109375 -13.1875 C 12.648438 -13.1875 10.921875 -12.007812 10.921875 -9.65625 L 10.921875 -8.765625 C 10.921875 -7.609375 11.273438 -6.757812 11.984375 -6.21875 C 12.703125 -5.6875 13.71875 -5.421875 15.03125 -5.421875 Z M 15.03125 -5.421875 "/></g></g></g><g fill="#352359" fill-opacity="1"><g transform="translate(195.720512, 266.152483)"><g><path d="M 4.109375 -31.3125 L 12.9375 -31.3125 L 12.9375 -26.0625 L 13.234375 -26.0625 C 13.671875 -27.8125 14.675781 -29.242188 16.25 -30.359375 C 17.820312 -31.472656 19.625 -32.03125 21.65625 -32.03125 C 25.625 -32.03125 28.625 -30.632812 30.65625 -27.84375 C 32.6875 -25.0625 33.703125 -21.007812 33.703125 -15.6875 C 33.703125 -10.351562 32.6875 -6.285156 30.65625 -3.484375 C 28.625 -0.679688 25.625 0.71875 21.65625 0.71875 C 20.613281 0.71875 19.632812 0.566406 18.71875 0.265625 C 17.8125 -0.0234375 16.988281 -0.441406 16.25 -0.984375 C 15.519531 -1.523438 14.894531 -2.160156 14.375 -2.890625 C 13.851562 -3.628906 13.472656 -4.414062 13.234375 -5.25 L 12.9375 -5.25 L 12.9375 11.921875 L 4.109375 11.921875 Z M 18.734375 -6.4375 C 20.398438 -6.4375 21.78125 -7.019531 22.875 -8.1875 C 23.96875 -9.363281 24.515625 -10.945312 24.515625 -12.9375 L 24.515625 -18.375 C 24.515625 -20.351562 23.96875 -21.929688 22.875 -23.109375 C 21.78125 -24.285156 20.398438 -24.875 18.734375 -24.875 C 17.054688 -24.875 15.671875 -24.460938 14.578125 -23.640625 C 13.484375 -22.828125 12.9375 -21.707031 12.9375 -20.28125 L 12.9375 -11.03125 C 12.9375 -9.601562 13.484375 -8.476562 14.578125 -7.65625 C 15.671875 -6.84375 17.054688 -6.4375 18.734375 -6.4375 Z M 18.734375 -6.4375 "/></g></g></g><g fill="#352359" fill-opacity="1"><g transform="translate(231.977366, 266.152483)"><g><path d="M 14.734375 0.71875 C 11.710938 0.71875 9.164062 0.234375 7.09375 -0.734375 C 5.03125 -1.710938 3.179688 -3.097656 1.546875 -4.890625 L 6.734375 -10.140625 C 7.847656 -8.910156 9.082031 -7.9375 10.4375 -7.21875 C 11.789062 -6.5 13.320312 -6.140625 15.03125 -6.140625 C 16.78125 -6.140625 17.992188 -6.40625 18.671875 -6.9375 C 19.347656 -7.476562 19.6875 -8.207031 19.6875 -9.125 C 19.6875 -10.59375 18.628906 -11.46875 16.515625 -11.75 L 13.125 -12.171875 C 6.082031 -13.046875 2.5625 -16.265625 2.5625 -21.828125 C 2.5625 -23.335938 2.847656 -24.71875 3.421875 -25.96875 C 4.003906 -27.226562 4.820312 -28.300781 5.875 -29.1875 C 6.925781 -30.082031 8.195312 -30.78125 9.6875 -31.28125 C 11.175781 -31.78125 12.859375 -32.03125 14.734375 -32.03125 C 16.359375 -32.03125 17.796875 -31.921875 19.046875 -31.703125 C 20.304688 -31.484375 21.421875 -31.164062 22.390625 -30.75 C 23.367188 -30.332031 24.265625 -29.8125 25.078125 -29.1875 C 25.890625 -28.570312 26.695312 -27.890625 27.5 -27.140625 L 22.421875 -21.953125 C 21.429688 -22.941406 20.304688 -23.722656 19.046875 -24.296875 C 17.796875 -24.878906 16.515625 -25.171875 15.203125 -25.171875 C 13.691406 -25.171875 12.617188 -24.929688 11.984375 -24.453125 C 11.347656 -23.972656 11.03125 -23.335938 11.03125 -22.546875 C 11.03125 -21.710938 11.257812 -21.066406 11.71875 -20.609375 C 12.175781 -20.148438 13.039062 -19.820312 14.3125 -19.625 L 17.828125 -19.140625 C 24.710938 -18.222656 28.15625 -15.082031 28.15625 -9.71875 C 28.15625 -8.207031 27.832031 -6.816406 27.1875 -5.546875 C 26.550781 -4.273438 25.644531 -3.171875 24.46875 -2.234375 C 23.300781 -1.296875 21.890625 -0.566406 20.234375 -0.046875 C 18.585938 0.460938 16.753906 0.71875 14.734375 0.71875 Z M 14.734375 0.71875 "/></g></g></g><g clip-path="url(#5955a5a8a3)"><g clip-path="url(#c50f77d1f1)"><path fill="url(#40501c8570)" d="M 128.921875 206.5625 L 245.921875 206.5625 L 245.921875 89.5625 L 128.921875 89.5625 Z M 128.921875 206.5625 " fill-rule="nonzero"/></g></g><g clip-path="url(#29ffd5ce2c)"><path fill="#ffffff" d="M 149.367188 183.144531 L 168.402344 159.871094 L 168.402344 113.394531 L 149.28125 136.773438 Z M 149.367188 183.144531 " fill-opacity="1" fill-rule="nonzero"/></g><g clip-path="url(#c3cd4a4fba)"><path fill="#c0bff2" d="M 168.402344 113.394531 L 187.472656 136.667969 L 187.472656 183.144531 L 168.402344 159.765625 Z M 168.402344 113.394531 " fill-opacity="1" fill-rule="nonzero"/></g><g clip-path="url(#e8de06ae44)"><path fill="#dbd5f4" d="M 187.558594 183.144531 L 206.59375 159.871094 L 206.59375 113.394531 L 187.472656 136.773438 Z M 187.558594 183.144531 " fill-opacity="1" fill-rule="nonzero"/></g><g clip-path="url(#418c095920)"><path fill="#a287ec" d="M 206.59375 113.394531 L 225.671875 136.667969 L 225.671875 183.144531 L 206.59375 159.765625 Z M 206.59375 113.394531 " fill-opacity="1" fill-rule="nonzero"/></g><g fill="#352359" fill-opacity="1"><g transform="translate(145.058942, 297.836943)"><g><path d="M 0.890625 0 L 0.890625 -1.046875 L 2.359375 -1.046875 L 2.359375 -9.359375 L 0.890625 -9.359375 L 0.890625 -10.40625 L 5.0625 -10.40625 L 5.0625 -9.359375 L 3.609375 -9.359375 L 3.609375 -1.046875 L 5.0625 -1.046875 L 5.0625 0 Z M 0.890625 0 "/></g></g></g><g fill="#352359" fill-opacity="1"><g transform="translate(152.182758, 297.836943)"><g><path d="M 1.265625 0 L 1.265625 -7.6875 L 2.453125 -7.6875 L 2.453125 -6.4375 L 2.515625 -6.4375 C 2.703125 -6.875 2.96875 -7.222656 3.3125 -7.484375 C 3.65625 -7.742188 4.117188 -7.875 4.703125 -7.875 C 5.492188 -7.875 6.117188 -7.613281 6.578125 -7.09375 C 7.046875 -6.582031 7.28125 -5.863281 7.28125 -4.9375 L 7.28125 0 L 6.078125 0 L 6.078125 -4.71875 C 6.078125 -6.101562 5.5 -6.796875 4.34375 -6.796875 C 4.101562 -6.796875 3.867188 -6.765625 3.640625 -6.703125 C 3.421875 -6.648438 3.21875 -6.5625 3.03125 -6.4375 C 2.851562 -6.320312 2.710938 -6.171875 2.609375 -5.984375 C 2.503906 -5.796875 2.453125 -5.582031 2.453125 -5.34375 L 2.453125 0 Z M 1.265625 0 "/></g></g></g><g fill="#352359" fill-opacity="1"><g transform="translate(161.810107, 297.836943)"><g><path d="M 2.96875 0 C 2.550781 0 2.234375 -0.113281 2.015625 -0.34375 C 1.804688 -0.582031 1.703125 -0.890625 1.703125 -1.265625 L 1.703125 -6.640625 L 0.4375 -6.640625 L 0.4375 -7.6875 L 1.140625 -7.6875 C 1.398438 -7.6875 1.578125 -7.738281 1.671875 -7.84375 C 1.765625 -7.945312 1.8125 -8.128906 1.8125 -8.390625 L 1.8125 -9.828125 L 2.890625 -9.828125 L 2.890625 -7.6875 L 4.578125 -7.6875 L 4.578125 -6.640625 L 2.890625 -6.640625 L 2.890625 -1.046875 L 4.453125 -1.046875 L 4.453125 0 Z M 2.96875 0 "/></g></g></g><g fill="#352359" fill-opacity="1"><g transform="translate(168.203715, 297.836943)"><g><path d="M 4.15625 0.171875 C 3.632812 0.171875 3.160156 0.078125 2.734375 -0.109375 C 2.316406 -0.296875 1.953125 -0.566406 1.640625 -0.921875 C 1.335938 -1.273438 1.101562 -1.695312 0.9375 -2.1875 C 0.78125 -2.675781 0.703125 -3.226562 0.703125 -3.84375 C 0.703125 -4.445312 0.78125 -5 0.9375 -5.5 C 1.101562 -6 1.335938 -6.421875 1.640625 -6.765625 C 1.953125 -7.117188 2.316406 -7.390625 2.734375 -7.578125 C 3.160156 -7.773438 3.632812 -7.875 4.15625 -7.875 C 4.675781 -7.875 5.140625 -7.773438 5.546875 -7.578125 C 5.953125 -7.390625 6.296875 -7.128906 6.578125 -6.796875 C 6.867188 -6.472656 7.09375 -6.082031 7.25 -5.625 C 7.40625 -5.164062 7.484375 -4.660156 7.484375 -4.109375 L 7.484375 -3.546875 L 1.953125 -3.546875 L 1.953125 -3.1875 C 1.953125 -2.863281 2.003906 -2.554688 2.109375 -2.265625 C 2.210938 -1.984375 2.359375 -1.738281 2.546875 -1.53125 C 2.742188 -1.320312 2.984375 -1.15625 3.265625 -1.03125 C 3.554688 -0.914062 3.878906 -0.859375 4.234375 -0.859375 C 4.722656 -0.859375 5.144531 -0.972656 5.5 -1.203125 C 5.863281 -1.429688 6.144531 -1.757812 6.34375 -2.1875 L 7.203125 -1.578125 C 6.953125 -1.054688 6.5625 -0.632812 6.03125 -0.3125 C 5.507812 0.0078125 4.882812 0.171875 4.15625 0.171875 Z M 4.15625 -6.875 C 3.832031 -6.875 3.535156 -6.816406 3.265625 -6.703125 C 2.992188 -6.585938 2.757812 -6.425781 2.5625 -6.21875 C 2.375 -6.007812 2.222656 -5.757812 2.109375 -5.46875 C 2.003906 -5.1875 1.953125 -4.878906 1.953125 -4.546875 L 1.953125 -4.4375 L 6.203125 -4.4375 L 6.203125 -4.609375 C 6.203125 -5.296875 6.015625 -5.84375 5.640625 -6.25 C 5.265625 -6.664062 4.769531 -6.875 4.15625 -6.875 Z M 4.15625 -6.875 "/></g></g></g><g fill="#352359" fill-opacity="1"><g transform="translate(177.54792, 297.836943)"><g><path d="M 1.265625 0 L 1.265625 -7.6875 L 2.453125 -7.6875 L 2.453125 -6.28125 L 2.53125 -6.28125 C 2.675781 -6.644531 2.925781 -6.96875 3.28125 -7.25 C 3.632812 -7.539062 4.125 -7.6875 4.75 -7.6875 L 5.21875 -7.6875 L 5.21875 -6.5 L 4.515625 -6.5 C 3.867188 -6.5 3.363281 -6.375 3 -6.125 C 2.632812 -5.882812 2.453125 -5.582031 2.453125 -5.21875 L 2.453125 0 Z M 1.265625 0 "/></g></g></g><g fill="#352359" fill-opacity="1"><g transform="translate(184.179964, 297.836943)"><g><path d="M 6.859375 0 C 6.410156 0 6.085938 -0.117188 5.890625 -0.359375 C 5.703125 -0.597656 5.582031 -0.894531 5.53125 -1.25 L 5.453125 -1.25 C 5.285156 -0.769531 5.007812 -0.410156 4.625 -0.171875 C 4.238281 0.0546875 3.773438 0.171875 3.234375 0.171875 C 2.421875 0.171875 1.785156 -0.0351562 1.328125 -0.453125 C 0.878906 -0.867188 0.65625 -1.429688 0.65625 -2.140625 C 0.65625 -2.867188 0.921875 -3.425781 1.453125 -3.8125 C 1.984375 -4.195312 2.8125 -4.390625 3.9375 -4.390625 L 5.453125 -4.390625 L 5.453125 -5.15625 C 5.453125 -5.707031 5.300781 -6.125 5 -6.40625 C 4.707031 -6.695312 4.253906 -6.84375 3.640625 -6.84375 C 3.171875 -6.84375 2.78125 -6.738281 2.46875 -6.53125 C 2.15625 -6.320312 1.894531 -6.039062 1.6875 -5.6875 L 0.96875 -6.359375 C 1.175781 -6.773438 1.507812 -7.128906 1.96875 -7.421875 C 2.425781 -7.722656 3.003906 -7.875 3.703125 -7.875 C 4.628906 -7.875 5.347656 -7.644531 5.859375 -7.1875 C 6.378906 -6.726562 6.640625 -6.09375 6.640625 -5.28125 L 6.640625 -1.046875 L 7.53125 -1.046875 L 7.53125 0 Z M 3.421875 -0.828125 C 3.722656 -0.828125 4 -0.863281 4.25 -0.9375 C 4.5 -1.007812 4.710938 -1.109375 4.890625 -1.234375 C 5.066406 -1.367188 5.203125 -1.519531 5.296875 -1.6875 C 5.398438 -1.851562 5.453125 -2.035156 5.453125 -2.234375 L 5.453125 -3.5 L 3.875 -3.5 C 3.1875 -3.5 2.6875 -3.398438 2.375 -3.203125 C 2.0625 -3.003906 1.90625 -2.71875 1.90625 -2.34375 L 1.90625 -2.03125 C 1.90625 -1.644531 2.039062 -1.347656 2.3125 -1.140625 C 2.59375 -0.929688 2.960938 -0.828125 3.421875 -0.828125 Z M 3.421875 -0.828125 "/></g></g></g><g fill="#352359" fill-opacity="1"><g transform="translate(193.300636, 297.836943)"><g><path d="M 4.125 0.171875 C 3.59375 0.171875 3.113281 0.078125 2.6875 -0.109375 C 2.257812 -0.296875 1.894531 -0.5625 1.59375 -0.90625 C 1.300781 -1.257812 1.078125 -1.679688 0.921875 -2.171875 C 0.773438 -2.671875 0.703125 -3.226562 0.703125 -3.84375 C 0.703125 -4.457031 0.773438 -5.015625 0.921875 -5.515625 C 1.078125 -6.015625 1.300781 -6.4375 1.59375 -6.78125 C 1.894531 -7.125 2.257812 -7.390625 2.6875 -7.578125 C 3.113281 -7.773438 3.59375 -7.875 4.125 -7.875 C 4.894531 -7.875 5.507812 -7.707031 5.96875 -7.375 C 6.425781 -7.039062 6.769531 -6.601562 7 -6.0625 L 6 -5.5625 C 5.863281 -5.957031 5.632812 -6.265625 5.3125 -6.484375 C 5 -6.703125 4.601562 -6.8125 4.125 -6.8125 C 3.769531 -6.8125 3.457031 -6.753906 3.1875 -6.640625 C 2.914062 -6.523438 2.691406 -6.363281 2.515625 -6.15625 C 2.335938 -5.957031 2.203125 -5.71875 2.109375 -5.4375 C 2.023438 -5.15625 1.984375 -4.84375 1.984375 -4.5 L 1.984375 -3.1875 C 1.984375 -2.507812 2.164062 -1.953125 2.53125 -1.515625 C 2.894531 -1.085938 3.425781 -0.875 4.125 -0.875 C 5.09375 -0.875 5.789062 -1.320312 6.21875 -2.21875 L 7.078125 -1.640625 C 6.828125 -1.085938 6.457031 -0.644531 5.96875 -0.3125 C 5.476562 0.0078125 4.863281 0.171875 4.125 0.171875 Z M 4.125 0.171875 "/></g></g></g><g fill="#352359" fill-opacity="1"><g transform="translate(201.959354, 297.836943)"><g><path d="M 2.96875 0 C 2.550781 0 2.234375 -0.113281 2.015625 -0.34375 C 1.804688 -0.582031 1.703125 -0.890625 1.703125 -1.265625 L 1.703125 -6.640625 L 0.4375 -6.640625 L 0.4375 -7.6875 L 1.140625 -7.6875 C 1.398438 -7.6875 1.578125 -7.738281 1.671875 -7.84375 C 1.765625 -7.945312 1.8125 -8.128906 1.8125 -8.390625 L 1.8125 -9.828125 L 2.890625 -9.828125 L 2.890625 -7.6875 L 4.578125 -7.6875 L 4.578125 -6.640625 L 2.890625 -6.640625 L 2.890625 -1.046875 L 4.453125 -1.046875 L 4.453125 0 Z M 2.96875 0 "/></g></g></g><g fill="#352359" fill-opacity="1"><g transform="translate(208.35296, 297.836943)"><g><path d="M 1.859375 -9.5 C 1.597656 -9.5 1.410156 -9.5625 1.296875 -9.6875 C 1.191406 -9.8125 1.140625 -9.972656 1.140625 -10.171875 L 1.140625 -10.359375 C 1.140625 -10.554688 1.191406 -10.71875 1.296875 -10.84375 C 1.410156 -10.96875 1.597656 -11.03125 1.859375 -11.03125 C 2.117188 -11.03125 2.304688 -10.96875 2.421875 -10.84375 C 2.535156 -10.71875 2.59375 -10.554688 2.59375 -10.359375 L 2.59375 -10.171875 C 2.59375 -9.972656 2.535156 -9.8125 2.421875 -9.6875 C 2.304688 -9.5625 2.117188 -9.5 1.859375 -9.5 Z M 1.265625 -7.6875 L 2.453125 -7.6875 L 2.453125 0 L 1.265625 0 Z M 1.265625 -7.6875 "/></g></g></g><g fill="#352359" fill-opacity="1"><g transform="translate(213.241467, 297.836943)"><g><path d="M 2.96875 0 L 0.265625 -7.6875 L 1.453125 -7.6875 L 2.796875 -3.875 L 3.640625 -1.25 L 3.71875 -1.25 L 4.546875 -3.875 L 5.921875 -7.6875 L 7.0625 -7.6875 L 4.359375 0 Z M 2.96875 0 "/></g></g></g><g fill="#352359" fill-opacity="1"><g transform="translate(221.736262, 297.836943)"><g><path d="M 4.15625 0.171875 C 3.632812 0.171875 3.160156 0.078125 2.734375 -0.109375 C 2.316406 -0.296875 1.953125 -0.566406 1.640625 -0.921875 C 1.335938 -1.273438 1.101562 -1.695312 0.9375 -2.1875 C 0.78125 -2.675781 0.703125 -3.226562 0.703125 -3.84375 C 0.703125 -4.445312 0.78125 -5 0.9375 -5.5 C 1.101562 -6 1.335938 -6.421875 1.640625 -6.765625 C 1.953125 -7.117188 2.316406 -7.390625 2.734375 -7.578125 C 3.160156 -7.773438 3.632812 -7.875 4.15625 -7.875 C 4.675781 -7.875 5.140625 -7.773438 5.546875 -7.578125 C 5.953125 -7.390625 6.296875 -7.128906 6.578125 -6.796875 C 6.867188 -6.472656 7.09375 -6.082031 7.25 -5.625 C 7.40625 -5.164062 7.484375 -4.660156 7.484375 -4.109375 L 7.484375 -3.546875 L 1.953125 -3.546875 L 1.953125 -3.1875 C 1.953125 -2.863281 2.003906 -2.554688 2.109375 -2.265625 C 2.210938 -1.984375 2.359375 -1.738281 2.546875 -1.53125 C 2.742188 -1.320312 2.984375 -1.15625 3.265625 -1.03125 C 3.554688 -0.914062 3.878906 -0.859375 4.234375 -0.859375 C 4.722656 -0.859375 5.144531 -0.972656 5.5 -1.203125 C 5.863281 -1.429688 6.144531 -1.757812 6.34375 -2.1875 L 7.203125 -1.578125 C 6.953125 -1.054688 6.5625 -0.632812 6.03125 -0.3125 C 5.507812 0.0078125 4.882812 0.171875 4.15625 0.171875 Z M 4.15625 -6.875 C 3.832031 -6.875 3.535156 -6.816406 3.265625 -6.703125 C 2.992188 -6.585938 2.757812 -6.425781 2.5625 -6.21875 C 2.375 -6.007812 2.222656 -5.757812 2.109375 -5.46875 C 2.003906 -5.1875 1.953125 -4.878906 1.953125 -4.546875 L 1.953125 -4.4375 L 6.203125 -4.4375 L 6.203125 -4.609375 C 6.203125 -5.296875 6.015625 -5.84375 5.640625 -6.25 C 5.265625 -6.664062 4.769531 -6.875 4.15625 -6.875 Z M 4.15625 -6.875 "/></g></g></g></svg>